<svg width="32" height="32" viewBox="0 0 32 32" fill="none" xmlns="http://www.w3.org/2000/svg">
<path fill-rule="evenodd" clip-rule="evenodd" d="M7.52315 29.8281C7.52315 29.8281 7.99979 32 10.4532 32H21.5466C23.9999 32 24.4766 29.8281 24.4766 29.8281L26.6666 8.53338H5.33324L7.52315 29.8281ZM20.2666 11.7334C20.2666 11.1443 20.7441 10.6668 21.3332 10.6668C21.9224 10.6668 22.4 11.1443 22.4 11.7334L21.3332 27.7334C21.3332 28.3226 20.8556 28.8001 20.2666 28.8001C19.6776 28.8001 19.2 28.3225 19.2 27.7334L20.2666 11.7334ZM14.9333 11.7334C14.9333 11.1443 15.4109 10.6668 15.9999 10.6668C16.5891 10.6668 17.0666 11.1443 17.0666 11.7334V27.7334C17.0666 28.3226 16.5891 28.8001 15.9999 28.8001C15.4107 28.8001 14.9333 28.3225 14.9333 27.7334V11.7334ZM10.6666 10.6667C11.2557 10.6667 11.7332 11.1441 11.7332 11.7333L12.8 27.7333C12.8 28.3225 12.3224 28.8 11.7332 28.8C11.1442 28.8 10.6666 28.3224 10.6666 27.7333L9.59993 11.7334C9.59993 11.1443 10.0775 10.6667 10.6666 10.6667ZM26.0265 4.26836H21.3332V2.1334C21.3332 0.515145 20.8099 0 19.2 0H12.7999C11.3232 0 10.6666 0.715267 10.6666 2.1334V4.26848H5.9733C5.03002 4.26848 4.2666 4.98446 4.2666 5.86922C4.2666 6.75409 5.03002 7.47008 5.9733 7.47008H26.0265C26.9698 7.47008 27.7332 6.75409 27.7332 5.86922C27.7332 4.98446 26.9698 4.26836 26.0265 4.26836ZM19.2 4.26836H12.8L12.8001 2.13329H19.2001V4.26836H19.2Z" fill="#EA7D1D"/>
</svg>
