<svg width="48" height="44" viewBox="0 0 48 44" fill="none" xmlns="http://www.w3.org/2000/svg">
<path d="M4 21H44" stroke="#EA7D1D" stroke-width="8" stroke-linecap="square" stroke-linejoin="round"/>
<rect x="14" y="13" width="21" height="17" fill="#EA7D1D"/>
<path d="M19.2 8V11.6H28.8V8H31.2V11.6H32.9233C33.9932 11.6 34.3811 11.7114 34.7722 11.9206C35.1633 12.1297 35.4703 12.4367 35.6794 12.8278C35.8886 13.2189 36 13.6068 36 14.6767V28.9233C36 29.9932 35.8886 30.3811 35.6794 30.7722C35.4703 31.1633 35.1633 31.4703 34.7722 31.6794C34.3811 31.8886 33.9932 32 32.9233 32H15.0767C14.0068 32 13.6189 31.8886 13.2278 31.6794C12.8367 31.4703 12.5297 31.1633 12.3206 30.7722C12.1275 30.4112 12.0177 30.0529 12.002 29.1584L12 14.6767C12 13.6068 12.1114 13.2189 12.3206 12.8278C12.5297 12.4367 12.8367 12.1297 13.2278 11.9206C13.5888 11.7275 13.9471 11.6177 14.8416 11.602L16.8 11.6V8H19.2ZM28.2423 20.552L23.1505 25.6422L19.7571 22.2491L18.06 23.9461L23.1512 29.0373L29.9394 22.2491L28.2423 20.552ZM32.4 13.958H15.6C14.9373 13.958 14.4 14.4953 14.4 15.158V17.558H33.6V15.158C33.6 14.4953 33.0627 13.958 32.4 13.958Z" fill="white"/>
</svg>
