<svg width="63" height="63" viewBox="0 0 63 63" fill="none" xmlns="http://www.w3.org/2000/svg">
<path d="M26.0367 25.2984C16.1648 35.0438 14.5195 49.2188 14.5195 49.2188C14.5195 49.2188 28.6945 47.5734 38.4398 37.7016C48.1852 27.8297 49.957 13.7812 49.957 13.7812C49.957 13.7812 35.782 15.4266 26.0367 25.2984Z" stroke="white" stroke-width="2" stroke-miterlimit="10" stroke-linecap="round" stroke-linejoin="round"/>
<path d="M25.9102 25.2987V29.0956C25.9102 31.3737 27.0492 33.5253 29.0742 34.6643C31.0992 35.8034 32.2383 37.955 32.2383 40.2331V42.6378" stroke="white" stroke-width="2" stroke-miterlimit="10" stroke-linecap="round" stroke-linejoin="round"/>
<path d="M32.2383 20.2362V25.1721C32.2383 27.4503 33.3773 29.6018 35.4023 30.7409C37.4273 31.88 38.5664 34.0315 38.5664 36.3096V37.5753" stroke="white" stroke-width="2" stroke-miterlimit="10" stroke-linecap="round" stroke-linejoin="round"/>
</svg>
