<svg width="105" height="105" viewBox="0 0 105 105" fill="none" xmlns="http://www.w3.org/2000/svg">
<g filter="url(#filter0_d_136_274)">
<circle cx="52.5" cy="52.5" r="39.5" fill="#EA7D1D"/>
</g>
<path d="M47.0367 46.2984C37.1648 56.0438 35.5195 70.2188 35.5195 70.2188C35.5195 70.2188 49.6945 68.5734 59.4398 58.7016C69.1852 48.8297 70.957 34.7812 70.957 34.7812C70.957 34.7812 56.782 36.4266 47.0367 46.2984Z" stroke="white" stroke-width="2" stroke-miterlimit="10" stroke-linecap="round" stroke-linejoin="round"/>
<path d="M46.9101 46.2987V50.0956C46.9101 52.3737 48.0492 54.5253 50.0742 55.6643C52.0992 56.8034 53.2382 58.955 53.2382 61.2331V63.6378" stroke="white" stroke-width="2" stroke-miterlimit="10" stroke-linecap="round" stroke-linejoin="round"/>
<path d="M53.2383 41.2362V46.1721C53.2383 48.4503 54.3773 50.6018 56.4023 51.7409C58.4273 52.88 59.5664 55.0315 59.5664 57.3096V58.5753" stroke="white" stroke-width="2" stroke-miterlimit="10" stroke-linecap="round" stroke-linejoin="round"/>
<defs>
<filter id="filter0_d_136_274" x="0" y="0" width="105" height="105" filterUnits="userSpaceOnUse" color-interpolation-filters="sRGB">
<feFlood flood-opacity="0" result="BackgroundImageFix"/>
<feColorMatrix in="SourceAlpha" type="matrix" values="0 0 0 0 0 0 0 0 0 0 0 0 0 0 0 0 0 0 127 0" result="hardAlpha"/>
<feOffset/>
<feGaussianBlur stdDeviation="6.5"/>
<feComposite in2="hardAlpha" operator="out"/>
<feColorMatrix type="matrix" values="0 0 0 0 0.245833 0 0 0 0 0.135678 0 0 0 0 0.0378993 0 0 0 0.62 0"/>
<feBlend mode="normal" in2="BackgroundImageFix" result="effect1_dropShadow_136_274"/>
<feBlend mode="normal" in="SourceGraphic" in2="effect1_dropShadow_136_274" result="shape"/>
</filter>
</defs>
</svg>
