<svg width="63" height="44" viewBox="0 0 63 44" fill="none" xmlns="http://www.w3.org/2000/svg">
<path d="M7 28L24.1339 11M23 28L40.1339 11M39 28L56.1339 11" stroke="#EA7D1D" stroke-width="8" stroke-linecap="square" stroke-linejoin="round"/>
<rect x="22" y="11" width="21" height="18" rx="9" fill="#EA7D1D"/>
<path d="M32 8C25.4 8 20 13.4 20 20C20 26.6 25.4 32 32 32C38.6 32 44 26.6 44 20C44 13.4 38.6 8 32 8ZM32 11.6C34.04 11.6 35.6 13.16 35.6 15.2C35.6 17.24 34.04 18.8 32 18.8C29.96 18.8 28.4 17.24 28.4 15.2C28.4 13.16 29.96 11.6 32 11.6ZM32 28.64C29 28.64 26.36 27.08 24.8 24.8C24.8 22.4 29.6 21.08 32 21.08C34.4 21.08 39.2 22.4 39.2 24.8C37.64 27.08 35 28.64 32 28.64Z" fill="white"/>
</svg>
