<svg width="32" height="32" viewBox="0 0 32 32" fill="none" xmlns="http://www.w3.org/2000/svg">
<path d="M27.7636 13.7497C27.9167 14.553 28 15.3929 28 16.2694C28 23.1252 23.3177 28 16.2457 28C14.6374 28.0005 13.0448 27.6904 11.5589 27.0875C10.0729 26.4846 8.7228 25.6007 7.58558 24.4864C6.44837 23.372 5.54638 22.0489 4.93115 20.5928C4.31592 19.1366 3.99951 17.576 4 16C3.99951 14.424 4.31592 12.8634 4.93115 11.4072C5.54638 9.95111 6.44837 8.62805 7.58558 7.51365C8.7228 6.39925 10.0729 5.51535 11.5589 4.91247C13.0448 4.30958 14.6374 3.99952 16.2457 4C19.5522 4 22.315 5.1922 24.4348 7.128L20.9827 10.5108V10.5022C19.6977 9.30272 18.0669 8.68712 16.2457 8.68712C12.2053 8.68712 8.92116 12.0321 8.92116 15.9927C8.92116 19.9521 12.2053 23.3043 16.2457 23.3043C19.9117 23.3043 22.4071 21.2503 22.9196 18.4295H16.2457V13.7497H27.7649H27.7636Z" fill="white"/>
</svg>
