<svg width="298" height="259" viewBox="0 0 298 259" fill="none" xmlns="http://www.w3.org/2000/svg">
<g clip-path="url(#clip0_29_3707)">
<path d="M127.553 193.451L142.98 213.448L124.167 215.132L127.553 193.451Z" fill="#9C9BA3"/>
<path d="M298 122.518C298.002 127.871 297.719 133.22 297.154 138.542C297.146 138.625 297.135 138.704 297.123 138.787C294.432 163.805 285.445 187.726 271.007 208.306C260.543 200.405 250.162 191.693 239.194 184.37C234.223 181.004 229.02 177.997 223.624 175.371C219.957 173.602 216.167 172.102 212.284 170.881C212.152 170.839 212.017 170.798 211.885 170.76C208.496 169.719 205.033 168.939 201.526 168.429C199.749 168.174 197.959 168.018 196.165 167.961C192.922 167.864 189.678 168.063 186.472 168.557C185.483 168.708 184.497 168.885 183.515 169.089C175.199 170.772 167.132 174.164 159.344 178.208H159.34C151.672 182.193 144.278 186.811 137.193 191.074C129.702 195.576 122.56 199.673 115.806 202.194C114.813 202.563 113.827 202.903 112.849 203.197C106.558 205.121 100.624 205.472 95.0778 203.246C92.577 202.223 90.2697 200.777 88.2562 198.971C85.882 196.885 83.4011 194.9 80.8137 193.018C77.5112 190.609 74.0823 188.38 70.5417 186.339C67.9041 184.811 65.1951 183.375 62.4145 182.03C58.8325 180.295 55.1513 178.71 51.3712 177.276C37.1066 171.919 22.1346 168.691 6.93454 167.697C-0.0298227 145.528 -1.77875 122.043 1.82489 99.0837H296.175C297.394 106.835 298.004 114.671 298 122.518Z" fill="#4A4A4A"/>
<path opacity="0.2" d="M281.67 76.8936C279.153 82.0015 274.735 85.8743 269.228 87.3192C269.219 87.324 269.209 87.3261 269.198 87.3252C267.817 87.6691 266.401 87.8581 264.977 87.8887H264.84C264.589 87.8947 264.338 87.8947 264.087 87.8887C258.946 87.7601 254.063 85.6071 250.494 81.8956C246.925 78.1841 244.956 73.2125 245.015 68.0567C245.033 66.8426 245.161 65.6326 245.398 64.4417C245.398 64.4357 245.404 64.4297 245.404 64.4237C246.053 62.3379 247.224 60.4535 248.805 58.9501C248.274 61.4906 248.252 64.1115 248.74 66.6606C249.228 69.2097 250.216 71.6362 251.648 73.7989C253.079 75.9616 254.925 77.8174 257.078 79.2585C259.23 80.6996 261.648 81.6972 264.188 82.1933C264.374 82.2293 264.559 82.2653 264.744 82.2952C265.282 82.3852 265.82 82.4511 266.365 82.4931C269.167 82.7212 271.986 82.3389 274.628 81.3724C277.27 80.4059 279.672 78.878 281.67 76.8936Z" fill="black"/>
<path d="M297.153 138.542C297.146 138.625 297.135 138.704 297.123 138.787C289.391 142.19 278.814 144.288 267.139 144.288C254.387 144.288 242.934 141.787 235.081 137.814C230.341 135.418 226.913 132.486 225.302 129.249C224.629 127.942 224.273 126.494 224.264 125.023C224.263 124.65 224.287 124.276 224.335 123.906C224.425 123.213 224.592 122.532 224.836 121.876C225.553 120.051 226.663 118.407 228.087 117.062C228.407 116.749 228.745 116.436 229.099 116.13C231.8 113.806 235.525 111.761 240.007 110.112C234.054 113.093 230.141 116.918 229.257 121.133C229.238 121.208 229.227 121.284 229.216 121.356C229.115 121.884 229.064 122.421 229.065 122.959C229.065 123.012 229.065 123.069 229.069 123.121C229.069 123.121 229.073 123.125 229.069 123.125C229.129 126.491 231.112 129.649 234.547 132.392C241.896 138.259 255.889 142.224 271.944 142.224C281.365 142.224 290.076 140.855 297.153 138.542Z" fill="#E6E6E6"/>
<path d="M224.878 117.418C217.203 121.265 212.53 126.346 212.53 131.918C212.53 143.922 234.192 153.654 260.913 153.654C272.53 153.654 283.188 151.813 291.529 148.747C282.67 153.187 269.811 155.982 255.494 155.982C228.773 155.982 207.112 146.251 207.112 134.247C207.112 127.462 214.035 121.404 224.878 117.418Z" fill="#E6E6E6"/>
<path d="M245.799 113.33C241.006 115.732 238.089 118.904 238.089 122.383C238.089 129.878 251.614 135.954 268.297 135.954C274.797 136.038 281.263 135.002 287.413 132.89C281.882 135.663 273.853 137.408 264.914 137.408C248.231 137.408 234.706 131.332 234.706 123.837C234.706 119.601 239.029 115.819 245.799 113.33Z" fill="#E6E6E6"/>
<path d="M288.898 119.454C288.679 118.903 288.298 118.431 287.805 118.1C287.313 117.769 286.733 117.596 286.14 117.602H251.765C251.297 117.601 250.841 117.747 250.459 118.019C250.078 118.291 249.79 118.675 249.637 119.118C249.483 119.562 249.471 120.042 249.603 120.492C249.734 120.943 250.002 121.341 250.369 121.631C253.872 124.393 260.348 127.683 271.316 127.683C281.17 127.683 285.964 124.97 288.247 122.699C288.67 122.287 288.958 121.757 289.074 121.178C289.19 120.599 289.129 119.998 288.898 119.454Z" fill="#9C9BA3"/>
<path d="M264.178 92.9916C266.858 90.95 270.221 90.0273 273.564 90.4168C267.629 91.8863 272.313 100.111 266.908 108.642C263.962 113.29 269.691 115.569 275.148 116.193C272.227 116.9 269.153 116.577 266.442 115.279C263.73 113.98 261.548 111.785 260.26 109.063C258.973 106.34 258.66 103.256 259.373 100.33C260.087 97.4029 261.783 94.8117 264.178 92.9916L264.178 92.9916Z" fill="#9C9BA3"/>
<path d="M271.526 88.7043H270.26V118.917H271.526V88.7043Z" fill="#9C9BA3"/>
<path d="M169.002 68.8653C169.571 68.7404 170.16 68.742 170.728 68.8701C171.296 68.9981 171.829 69.2494 172.289 69.6063C172.75 69.9632 173.127 70.417 173.393 70.9358C173.66 71.4546 173.81 72.0257 173.833 72.6089L203.793 84.2096L198.137 88.9192L169.726 76.8041C168.746 76.7775 167.81 76.3915 167.095 75.7193C166.381 75.0471 165.937 74.1353 165.848 73.1568C165.759 72.1782 166.03 71.2009 166.612 70.4099C167.193 69.619 168.044 69.0694 169.002 68.8653Z" fill="#FAFAFA"/>
<path d="M228.435 103.731C227.186 104.022 225.317 103.886 222.626 102.518C216.431 99.3629 204.331 93.2863 204.331 93.2863L198.764 90.6168L182.23 82.7055L182.395 82.2104L184.244 76.6385L184.757 75.1145L200.139 81.3756L209.877 85.3361L220.487 87.0349L227.815 94.422C227.98 96.7323 228.212 100.101 228.435 103.731Z" fill="#9C9BA3"/>
<path d="M65.9495 90.8859L67.2993 82.3005C72.7905 80.951 85.4372 83.7732 85.4372 83.7732L106.982 81.614C107.51 81.1901 108.14 80.9141 108.809 80.814C109.478 80.714 110.162 80.7935 110.79 81.0445C111.418 81.2955 111.969 81.709 112.386 82.2429C112.803 82.7767 113.072 83.4119 113.165 84.0838C113.257 84.7556 113.171 85.44 112.914 86.0674C112.657 86.6947 112.239 87.2426 111.702 87.6551C111.165 88.0677 110.529 88.3302 109.858 88.4159C109.187 88.5017 108.505 88.4076 107.882 88.1432L81.9709 91.7596L65.9495 90.8859Z" fill="#FAFAFA"/>
<path d="M67.8293 91.6249L56.246 87.0439L52.2097 81.8986C51.4952 80.7945 51.103 79.512 51.0773 78.1961C51.0516 76.8801 51.3934 75.5832 52.0641 74.4519C52.9837 72.9244 54.4473 71.804 56.1591 71.3173C57.8709 70.8306 59.7032 71.0139 61.2854 71.8301C66.0819 74.3093 71.8472 78.064 72.0755 81.8723L72.0778 81.9109L72.2947 82.5802L68.9782 91.6999L67.8293 91.6249Z" fill="#9C9BA3"/>
<path d="M143.876 135.574C143.876 177.943 131.436 225.067 115.804 227.885C114.828 228.067 113.826 228.067 112.85 227.885C97.2185 225.067 84.7786 177.943 84.7786 135.574C84.7786 93.2061 97.2185 71.1552 112.85 69.8574C113.34 69.8159 113.831 69.7952 114.327 69.7952C114.823 69.7952 115.314 69.8159 115.804 69.8574C131.436 71.1552 143.876 93.2061 143.876 135.574Z" fill="#EA7D1D"/>
<path d="M115.805 69.8573V227.885C114.828 228.066 113.827 228.066 112.85 227.885V69.8573C113.341 69.8158 113.831 69.795 114.328 69.795C114.824 69.795 115.314 69.8158 115.805 69.8573Z" fill="#CFCFCF"/>
<path d="M214.542 135.574C214.542 177.943 202.103 225.067 186.471 227.885C185.495 228.067 184.493 228.067 183.517 227.885C167.885 225.067 155.446 177.943 155.446 135.574C155.446 93.2061 167.885 71.1552 183.517 69.8574C184.007 69.8159 184.498 69.7952 184.994 69.7952C185.49 69.7952 185.981 69.8159 186.471 69.8574C202.103 71.1552 214.542 93.2061 214.542 135.574Z" fill="#EA7D1D"/>
<path d="M186.471 69.8574V227.885C185.495 228.067 184.493 228.067 183.516 227.885V69.8574C184.007 69.8159 184.497 69.7952 184.994 69.7952C185.49 69.7952 185.981 69.8159 186.471 69.8574Z" fill="#CFCFCF"/>
<path d="M228.087 129.293L203.613 128.884L201.573 112.114H228.087V129.293Z" fill="#9E9E9E"/>
<path d="M205.461 231.891L199.811 231.891L197.123 210.038L205.462 210.038L205.461 231.891Z" fill="#FAFAFA"/>
<path d="M241.456 231.815L235.806 231.775L233.271 209.903L240.619 211.594L241.456 231.815Z" fill="#FAFAFA"/>
<path d="M213.036 67.6342C217.978 67.6342 221.985 63.6166 221.985 58.6607C221.985 53.7048 217.978 49.6873 213.036 49.6873C208.094 49.6873 204.087 53.7048 204.087 58.6607C204.087 63.6166 208.094 67.6342 213.036 67.6342Z" fill="#FAFAFA"/>
<path d="M241.6 212.489L239.101 183.284L234.206 148.517C237.728 129.008 229.719 121.112 229.719 121.112L228.579 121.166L202.792 126.045L202.797 126.02C197.523 140.446 195.775 147.572 196.064 162.934L197.071 212.489L205.746 212.149L216.035 147.209L224.522 178.686L233.496 214.681C235.792 216.372 242.354 212.79 241.6 212.489Z" fill="black"/>
<path d="M229.015 123.184L203.846 127.067C202.975 127.29 199.49 107.332 199.006 103.769C198.402 99.4105 198.32 94.9946 198.764 90.6163C198.842 89.7815 198.938 88.9661 199.045 88.1604C199.287 86.3257 199.587 84.5299 199.906 82.705C199.984 82.2682 200.061 81.8217 200.139 81.3751C200.294 80.4821 200.458 79.589 200.613 78.6669C200.808 77.54 201.394 76.5185 202.267 75.783C203.14 75.0475 204.245 74.6456 205.386 74.6481H205.482C205.527 74.6461 205.57 74.6286 205.604 74.5985C205.637 74.5684 205.659 74.5276 205.666 74.483C205.749 73.8284 206.067 73.2266 206.56 72.7904C207.054 72.3543 207.69 72.114 208.348 72.1146H218.512C218.892 72.1137 219.267 72.1878 219.618 72.3328C219.969 72.4777 220.288 72.6906 220.557 72.9593C220.826 73.2279 221.039 73.5471 221.185 73.8985C221.331 74.2499 221.406 74.6267 221.406 75.0073C221.406 75.0547 221.424 75.1005 221.456 75.1349C221.489 75.1693 221.533 75.1897 221.581 75.1917L225.017 75.415C225.268 75.4487 225.511 75.5251 225.735 75.6409C226.786 76.1428 227.651 76.9656 228.205 77.9912C228.76 79.0168 228.977 80.1923 228.824 81.3489L227.582 91.3055V91.3346C227.602 91.4705 227.689 92.6256 227.815 94.4215C227.979 96.7318 228.212 100.1 228.434 103.731C228.986 112.622 229.518 123.057 229.015 123.184Z" fill="#9C9BA3"/>
<path d="M222.619 50.6822C224.286 51.1798 225.841 49.7815 227.002 48.4567L226.589 48.9473C229.319 50.8749 230.951 54.0151 232.01 57.1939C233.069 60.3691 233.66 63.6951 234.855 66.8248C236.05 69.9509 237.98 72.9755 240.933 74.5351C244.889 76.6238 249.737 75.6741 253.945 74.1671C254.001 74.146 254.053 74.1285 254.109 74.1075C252.405 70.9151 251.361 67.4105 251.04 63.8037C252.771 67.1927 255.268 70.1293 258.331 72.3797C261.081 71.1264 263.724 69.6519 266.237 67.9708C267.862 66.8808 269.574 65.4719 269.763 63.5198C269.955 61.5817 268.512 59.8119 266.81 58.8796C265.108 57.9474 263.151 57.6319 261.291 57.0712C259.435 56.5139 257.541 55.5992 256.566 53.917C254.319 50.0478 258.1 44.591 255.689 40.82C254.5 38.966 252.194 38.223 250.055 37.7078C246.79 36.9247 243.476 36.3639 240.136 36.0291C237.204 35.7347 234.174 35.626 231.384 36.5723C228.595 37.5186 226.065 39.716 225.467 42.6108C223.839 43.4695 222.116 44.4193 221.242 46.049C220.368 47.6751 220.854 50.1565 222.619 50.6822Z" fill="black"/>
<path d="M225.108 50.0295C226.704 52.0348 227.573 54.2034 227.573 55.5022C230.89 61.5801 226.147 66.8007 220.086 70.1261C217.669 71.4594 214.877 71.9474 212.152 71.5131L211.899 70.4276L211.555 71.4054C211.555 71.4054 207.609 84.4754 206.307 85.2421C206.801 82.9161 207.367 72.1463 207.642 69.8762C208.023 66.7866 206.696 62.1869 205.738 59.3897C205.145 57.6657 204.84 55.855 204.837 54.0312V53.9515L203.905 56.9538L200.511 55.5022C201.143 51.871 200.511 47.7487 208.08 48.1063C212.174 45.2831 215.779 44.8531 218.74 45.6538C219.122 45.0613 221.326 46.171 221.962 45.859L225.108 50.0295Z" fill="black"/>
<path d="M160.633 88.9253C160.799 89.4845 161.086 90.0003 161.473 90.4363C161.86 90.8723 162.338 91.2179 162.872 91.4487C163.407 91.6796 163.985 91.7901 164.567 91.7726C165.149 91.755 165.72 91.6097 166.239 91.3469L176.525 100.76L177.891 93.5157L167.908 85.711C167.409 84.8647 166.619 84.2311 165.686 83.9302C164.754 83.6292 163.743 83.6818 162.846 84.078C161.95 84.4742 161.229 85.1865 160.821 86.0799C160.413 86.9733 160.346 87.9857 160.633 88.9253Z" fill="#FAFAFA"/>
<path d="M196.432 81.7303C196.432 81.7303 200.019 73.6027 204.548 75.2183C209.078 76.8338 206.739 84.7197 206.739 84.7197L189.721 110.436C189.721 110.436 171.821 99.0279 174.806 98.9164C177.791 98.8048 177.71 93.0921 177.71 93.0921L185.01 95.4786L185.449 93.1645L186.152 93.87L187.968 92.437L196.432 81.7303Z" fill="#9C9BA3"/>
<path d="M42.5852 218.519L47.8702 219.91L55.7386 200.13L47.9379 198.076L42.5852 218.519Z" fill="#FAFAFA"/>
<path d="M40.9509 223.998L57.2035 228.278L57.2574 228.072C57.6979 226.389 57.454 224.601 56.5792 223.099C55.7045 221.597 54.2706 220.504 52.5929 220.063L52.5926 220.062L49.93 215.402L44.0848 217.822L42.6661 217.449L40.9509 223.998Z" fill="#FAFAFA"/>
<path d="M69.6784 222.483L75.1425 222.482L77.7421 201.347L69.6772 201.348L69.6784 222.483Z" fill="#FAFAFA"/>
<path d="M69.4856 228.2L86.2891 228.199V227.986C86.289 226.246 85.5999 224.578 84.3734 223.348C83.1468 222.118 81.4833 221.427 79.7488 221.427H79.7484L75.0981 219.285L70.9522 221.428L69.4854 221.428L69.4856 228.2Z" fill="#FAFAFA"/>
<path d="M56.0116 121.342C54.6916 122.997 55.3516 128.623 55.3516 128.623L56.7062 164.925C51.0962 169.558 47.0259 199.87 47.0259 199.87C47.6859 201.856 54.4182 202.143 55.7381 201.812C57.0581 201.481 74.1307 142.598 74.1307 142.598C74.1307 142.598 69.2906 200.797 69.2906 202.783C69.2906 204.768 76.0228 202.783 78.0028 202.783C79.9828 202.783 93.3013 128.292 93.3013 128.292V123.659L91.6513 121.342C91.6513 121.342 57.3316 119.688 56.0116 121.342Z" fill="black"/>
<path d="M54.7695 123.184C54.7695 123.184 58.2329 114.346 58.9089 112.888C57.2536 112.35 57.0066 104.06 57.0066 104.06L54.8305 101.878L54.8244 101.824L53.5721 90.836L51.7513 83.538C51.0653 80.7791 51.1237 77.8868 51.9207 75.158C52.7177 72.4292 54.2245 69.9623 56.2864 68.0104L60.4952 67.3403L65.6101 62.3983H73.8585L76.6867 65.1079C82.247 69.6784 83.567 67.6929 89.8369 76.2966L85.3476 88.1569C85.3476 88.1569 90.5175 112.789 90.2376 114.193C90.2376 114.193 92.3975 116.833 92.7048 118.271C92.7048 118.271 93.7153 124.002 93.4906 124.155C91.7241 125.354 82.3235 123.947 78.0021 122.213C73.399 120.368 54.7695 123.184 54.7695 123.184Z" fill="#9C9BA3"/>
<path d="M106.424 78.3541C106.424 78.3541 93.7318 75.7453 88.264 77.1871L87.0581 85.794L102.54 87.172L128.965 82.3554C129.593 82.6043 130.275 82.6822 130.943 82.5811C131.611 82.4801 132.24 82.2037 132.767 81.78C133.293 81.3563 133.699 80.8004 133.942 80.1687C134.185 79.5371 134.257 78.8522 134.151 78.1835C134.045 77.5148 133.764 76.8862 133.338 76.3615C132.911 75.8367 132.353 75.4346 131.721 75.1958C131.09 74.957 130.406 74.8902 129.74 75.002C129.074 75.1138 128.449 75.4003 127.93 75.8324L106.424 78.3541Z" fill="#FAFAFA"/>
<path d="M88.6514 86.2978L78.4879 86.4209L73.692 81.7497C72.7538 80.8293 72.0911 79.664 71.7787 78.3856C71.4662 77.1073 71.5166 75.7668 71.9241 74.5156C72.4878 72.8233 73.6713 71.4088 75.2353 70.5581C76.7993 69.7074 78.6271 69.4839 80.3491 69.9329C85.5705 71.2988 87.5971 70.9835 88.6514 74.6493L93.4916 76.5907L92.5235 86.2978L88.6514 86.2978Z" fill="#9C9BA3"/>
<path d="M70.4925 59.6379C76.6916 59.6379 81.7169 54.5986 81.7169 48.3824C81.7169 42.1661 76.6916 37.1268 70.4925 37.1268C64.2934 37.1268 59.2681 42.1661 59.2681 48.3824C59.2681 54.5986 64.2934 59.6379 70.4925 59.6379Z" fill="#F2F2F2"/>
<path d="M60.0098 55.5203C59.1779 54.33 58.5878 52.4235 58.2393 51.0301C57.773 49.1953 57.6963 47.2828 58.0142 45.4165C58.3322 43.5501 59.0376 41.7716 60.0849 40.1961C60.4713 39.554 61.0252 39.0298 61.6868 38.6801C62.0207 38.5133 62.3986 38.4567 62.7665 38.5184C63.1343 38.5801 63.4733 38.757 63.7348 39.0236C63.7362 38.5189 63.8408 38.0198 64.0421 37.5572C64.2434 37.0946 64.537 36.6782 64.905 36.3338C65.6469 35.6489 66.5378 35.1468 67.5069 34.8671C69.3738 34.2963 71.3601 34.2429 73.2549 34.7126C75.1497 35.1824 76.8823 36.1578 78.2689 37.5354C78.8105 38.0881 78.6172 35.3264 79.2187 35.8129C79.8014 36.3355 80.565 36.6086 81.3459 36.5738C82.1143 36.4918 83.5277 39.2376 83.5358 38.4627C84.3442 39.275 84.7004 42.7007 84.4475 43.8199C84.1947 44.9392 80.4327 44.4445 79.3541 44.8281C78.6396 45.0822 77.8635 45.0908 77.1236 45.2562C75.808 45.597 74.6624 46.4091 73.9031 47.5391C73.1438 48.669 72.8233 50.0386 73.0022 51.3893C72.5288 50.751 71.9558 50.1936 71.3051 49.7386C70.9774 49.5139 70.6009 49.371 70.2069 49.3217C69.8129 49.2724 69.4129 49.3181 69.0401 49.455C68.7036 49.6361 68.4076 49.8842 68.1702 50.1841C67.9328 50.4841 67.7591 50.8295 67.6597 51.1992C67.4147 51.9229 67.3198 52.6911 67.0703 53.4133C66.3381 55.5321 65.9604 57.7563 63.9196 58.2587C62.3091 58.6552 61.1457 57.1456 60.0098 55.5203Z" fill="black"/>
<path d="M205.462 236.958L188.658 236.957V236.744C188.658 235.005 189.347 233.337 190.574 232.107C191.801 230.877 193.464 230.186 195.199 230.186H195.199L199.849 228.043L203.995 230.186L205.462 230.186L205.462 236.958Z" fill="#FAFAFA"/>
<path d="M241.455 236.958L224.652 236.957V236.744C224.652 235.005 225.341 233.337 226.568 232.107C227.794 230.877 229.458 230.186 231.192 230.186H231.193L235.843 228.043L239.989 230.186L241.456 230.186L241.455 236.958Z" fill="#FAFAFA"/>
</g>
<defs>
<clipPath id="clip0_29_3707">
<rect width="298" height="259" fill="white"/>
</clipPath>
</defs>
</svg>
